<svg width="147" height="48" viewBox="0 0 147 48" fill="none" xmlns="http://www.w3.org/2000/svg">
<rect width="147" height="48" rx="24" fill="#EC994B"/>
<path d="M36.288 30.112C35.2427 30.112 34.2827 29.8667 33.408 29.376C32.5333 28.8853 31.84 28.208 31.328 27.344C30.816 26.4693 30.56 25.4827 30.56 24.384C30.56 23.296 30.816 22.32 31.328 21.456C31.84 20.5813 32.5333 19.8987 33.408 19.408C34.2827 18.9173 35.2427 18.672 36.288 18.672C37.344 18.672 38.304 18.9173 39.168 19.408C40.0427 19.8987 40.7307 20.5813 41.232 21.456C41.744 22.32 42 23.296 42 24.384C42 25.4827 41.744 26.4693 41.232 27.344C40.7307 28.208 40.0427 28.8853 39.168 29.376C38.2933 29.8667 37.3333 30.112 36.288 30.112ZM36.288 28.112C36.96 28.112 37.552 27.9627 38.064 27.664C38.576 27.3547 38.976 26.9173 39.264 26.352C39.552 25.7867 39.696 25.1307 39.696 24.384C39.696 23.6373 39.552 22.9867 39.264 22.432C38.976 21.8667 38.576 21.4347 38.064 21.136C37.552 20.8373 36.96 20.688 36.288 20.688C35.616 20.688 35.0187 20.8373 34.496 21.136C33.984 21.4347 33.584 21.8667 33.296 22.432C33.008 22.9867 32.864 23.6373 32.864 24.384C32.864 25.1307 33.008 25.7867 33.296 26.352C33.584 26.9173 33.984 27.3547 34.496 27.664C35.0187 27.9627 35.616 28.112 36.288 28.112ZM46.0665 22.512C46.3545 22.0427 46.7278 21.6747 47.1865 21.408C47.6558 21.1413 48.1892 21.008 48.7865 21.008V23.36H48.1945C47.4905 23.36 46.9572 23.5253 46.5945 23.856C46.2425 24.1867 46.0665 24.7627 46.0665 25.584V30H43.8265V21.136H46.0665V22.512ZM49.8792 25.536C49.8792 24.64 50.0552 23.8453 50.4072 23.152C50.7699 22.4587 51.2606 21.9253 51.8792 21.552C52.4979 21.1787 53.1859 20.992 53.9432 20.992C54.5192 20.992 55.0686 21.12 55.5912 21.376C56.1139 21.6213 56.5299 21.952 56.8393 22.368V18.16H59.1112V30H56.8393V28.688C56.5619 29.1253 56.1726 29.4773 55.6712 29.744C55.1699 30.0107 54.5886 30.144 53.9272 30.144C53.1806 30.144 52.4979 29.952 51.8792 29.568C51.2606 29.184 50.7699 28.6453 50.4072 27.952C50.0552 27.248 49.8792 26.4427 49.8792 25.536ZM56.8552 25.568C56.8552 25.024 56.7486 24.56 56.5353 24.176C56.3219 23.7813 56.0339 23.4827 55.6712 23.28C55.3086 23.0667 54.9193 22.96 54.5033 22.96C54.0873 22.96 53.7032 23.0613 53.3512 23.264C52.9992 23.4667 52.7112 23.7653 52.4872 24.16C52.2739 24.544 52.1672 25.0027 52.1672 25.536C52.1672 26.0693 52.2739 26.5387 52.4872 26.944C52.7112 27.3387 52.9992 27.6427 53.3512 27.856C53.7139 28.0693 54.0979 28.176 54.5033 28.176C54.9193 28.176 55.3086 28.0747 55.6712 27.872C56.0339 27.6587 56.3219 27.36 56.5353 26.976C56.7486 26.5813 56.8552 26.112 56.8552 25.568ZM69.699 25.376C69.699 25.696 69.6777 25.984 69.635 26.24H63.155C63.2083 26.88 63.4323 27.3813 63.827 27.744C64.2217 28.1067 64.707 28.288 65.283 28.288C66.115 28.288 66.707 27.9307 67.059 27.216H69.475C69.219 28.0693 68.7283 28.7733 68.003 29.328C67.2777 29.872 66.387 30.144 65.331 30.144C64.4777 30.144 63.7097 29.9573 63.027 29.584C62.355 29.2 61.827 28.6613 61.443 27.968C61.0697 27.2747 60.883 26.4747 60.883 25.568C60.883 24.6507 61.0697 23.8453 61.443 23.152C61.8163 22.4587 62.339 21.9253 63.011 21.552C63.683 21.1787 64.4563 20.992 65.331 20.992C66.1737 20.992 66.9257 21.1733 67.587 21.536C68.259 21.8987 68.7763 22.416 69.139 23.088C69.5123 23.7493 69.699 24.512 69.699 25.376ZM67.379 24.736C67.3683 24.16 67.1603 23.7013 66.755 23.36C66.3497 23.008 65.8537 22.832 65.267 22.832C64.7123 22.832 64.243 23.0027 63.859 23.344C63.4857 23.6747 63.2563 24.1387 63.171 24.736H67.379ZM73.734 22.512C74.022 22.0427 74.3953 21.6747 74.854 21.408C75.3233 21.1413 75.8567 21.008 76.454 21.008V23.36H75.862C75.158 23.36 74.6247 23.5253 74.262 23.856C73.91 24.1867 73.734 24.7627 73.734 25.584V30H71.494V21.136H73.734V22.512ZM91.6472 30H89.4072L84.3352 22.336V30H82.0952V18.816H84.3352L89.4072 26.496V18.816H91.6472V30ZM97.9569 30.144C97.1035 30.144 96.3355 29.9573 95.6529 29.584C94.9702 29.2 94.4315 28.6613 94.0369 27.968C93.6529 27.2747 93.4609 26.4747 93.4609 25.568C93.4609 24.6613 93.6582 23.8613 94.0529 23.168C94.4582 22.4747 95.0075 21.9413 95.7009 21.568C96.3942 21.184 97.1675 20.992 98.0209 20.992C98.8742 20.992 99.6475 21.184 100.341 21.568C101.034 21.9413 101.578 22.4747 101.973 23.168C102.378 23.8613 102.581 24.6613 102.581 25.568C102.581 26.4747 102.373 27.2747 101.957 27.968C101.552 28.6613 100.997 29.2 100.293 29.584C99.5995 29.9573 98.8209 30.144 97.9569 30.144ZM97.9569 28.192C98.3622 28.192 98.7409 28.096 99.0929 27.904C99.4555 27.7013 99.7435 27.4027 99.9569 27.008C100.17 26.6133 100.277 26.1333 100.277 25.568C100.277 24.7253 100.053 24.08 99.6049 23.632C99.1675 23.1733 98.6289 22.944 97.9889 22.944C97.3489 22.944 96.8102 23.1733 96.3729 23.632C95.9462 24.08 95.7329 24.7253 95.7329 25.568C95.7329 26.4107 95.9409 27.0613 96.3569 27.52C96.7835 27.968 97.3169 28.192 97.9569 28.192ZM116.672 21.136L114.08 30H111.664L110.048 23.808L108.432 30H106L103.392 21.136H105.664L107.232 27.888L108.928 21.136H111.296L112.96 27.872L114.528 21.136H116.672Z" fill="white"/>
</svg>
