<svg width="128" height="48" viewBox="0 0 128 48" fill="none" xmlns="http://www.w3.org/2000/svg">
<rect width="128" height="48" rx="24" fill="#EC994B"/>
<path d="M44.844 28.224H48.524V30H42.604V18.832H44.844V28.224ZM54.0438 30.144C53.1904 30.144 52.4224 29.9573 51.7397 29.584C51.0571 29.2 50.5184 28.6613 50.1237 27.968C49.7397 27.2747 49.5477 26.4747 49.5477 25.568C49.5477 24.6613 49.7451 23.8613 50.1397 23.168C50.5451 22.4747 51.0944 21.9413 51.7878 21.568C52.4811 21.184 53.2544 20.992 54.1077 20.992C54.9611 20.992 55.7344 21.184 56.4278 21.568C57.1211 21.9413 57.6651 22.4747 58.0598 23.168C58.4651 23.8613 58.6678 24.6613 58.6678 25.568C58.6678 26.4747 58.4598 27.2747 58.0437 27.968C57.6384 28.6613 57.0838 29.2 56.3798 29.584C55.6864 29.9573 54.9078 30.144 54.0438 30.144ZM54.0438 28.192C54.4491 28.192 54.8278 28.096 55.1797 27.904C55.5424 27.7013 55.8304 27.4027 56.0438 27.008C56.2571 26.6133 56.3637 26.1333 56.3637 25.568C56.3637 24.7253 56.1398 24.08 55.6918 23.632C55.2544 23.1733 54.7157 22.944 54.0757 22.944C53.4357 22.944 52.8971 23.1733 52.4597 23.632C52.0331 24.08 51.8198 24.7253 51.8198 25.568C51.8198 26.4107 52.0278 27.0613 52.4437 27.52C52.8704 27.968 53.4038 28.192 54.0438 28.192ZM63.9429 20.992C64.6042 20.992 65.1855 21.1253 65.6869 21.392C66.1882 21.648 66.5829 21.984 66.8709 22.4V21.136H69.1269V30.064C69.1269 30.8853 68.9615 31.616 68.6309 32.256C68.3002 32.9067 67.8042 33.4187 67.1429 33.792C66.4815 34.176 65.6815 34.368 64.7429 34.368C63.4842 34.368 62.4495 34.0747 61.6389 33.488C60.8389 32.9013 60.3855 32.1013 60.2789 31.088H62.5029C62.6202 31.4933 62.8709 31.8133 63.2549 32.048C63.6495 32.2933 64.1242 32.416 64.6789 32.416C65.3295 32.416 65.8575 32.2187 66.2629 31.824C66.6682 31.44 66.8709 30.8533 66.8709 30.064V28.688C66.5829 29.104 66.1829 29.4507 65.6709 29.728C65.1695 30.0053 64.5935 30.144 63.9429 30.144C63.1962 30.144 62.5135 29.952 61.8949 29.568C61.2762 29.184 60.7855 28.6453 60.4229 27.952C60.0709 27.248 59.8949 26.4427 59.8949 25.536C59.8949 24.64 60.0709 23.8453 60.4229 23.152C60.7855 22.4587 61.2709 21.9253 61.8789 21.552C62.4975 21.1787 63.1855 20.992 63.9429 20.992ZM66.8709 25.568C66.8709 25.024 66.7642 24.56 66.5509 24.176C66.3375 23.7813 66.0495 23.4827 65.6869 23.28C65.3242 23.0667 64.9349 22.96 64.5189 22.96C64.1029 22.96 63.7189 23.0613 63.3669 23.264C63.0149 23.4667 62.7269 23.7653 62.5029 24.16C62.2895 24.544 62.1829 25.0027 62.1829 25.536C62.1829 26.0693 62.2895 26.5387 62.5029 26.944C62.7269 27.3387 63.0149 27.6427 63.3669 27.856C63.7295 28.0693 64.1135 28.176 64.5189 28.176C64.9349 28.176 65.3242 28.0747 65.6869 27.872C66.0495 27.6587 66.3375 27.36 66.5509 26.976C66.7642 26.5813 66.8709 26.112 66.8709 25.568ZM72.6106 20.08C72.216 20.08 71.8853 19.9573 71.6186 19.712C71.3626 19.456 71.2346 19.1413 71.2346 18.768C71.2346 18.3947 71.3626 18.0853 71.6186 17.84C71.8853 17.584 72.216 17.456 72.6106 17.456C73.0053 17.456 73.3306 17.584 73.5866 17.84C73.8533 18.0853 73.9866 18.3947 73.9866 18.768C73.9866 19.1413 73.8533 19.456 73.5866 19.712C73.3306 19.9573 73.0053 20.08 72.6106 20.08ZM73.7146 21.136V30H71.4746V21.136H73.7146ZM80.9997 21.008C82.0557 21.008 82.9091 21.344 83.5597 22.016C84.2104 22.6773 84.5357 23.6053 84.5357 24.8V30H82.2957V25.104C82.2957 24.4 82.1197 23.8613 81.7677 23.488C81.4157 23.104 80.9357 22.912 80.3277 22.912C79.7091 22.912 79.2184 23.104 78.8557 23.488C78.5037 23.8613 78.3277 24.4 78.3277 25.104V30H76.0877V21.136H78.3277V22.24C78.6264 21.856 79.0051 21.5573 79.4637 21.344C79.9331 21.12 80.4451 21.008 80.9997 21.008Z" fill="white"/>
</svg>
