<svg width="199" height="48" viewBox="0 0 199 48" fill="none" xmlns="http://www.w3.org/2000/svg">
<path d="M42 34C47.5228 34 52 29.5228 52 24C52 18.4772 47.5228 14 42 14C36.4772 14 32 18.4772 32 24C32 29.5228 36.4772 34 42 34Z" stroke="#EC994B" stroke-width="2" stroke-linecap="round" stroke-linejoin="round"/>
<path d="M40 20L46 24L40 28V20Z" stroke="#EC994B" stroke-width="2" stroke-linecap="round" stroke-linejoin="round"/>
<path d="M74.368 18.832V30H72.128V25.248H67.344V30H65.104V18.832H67.344V23.424H72.128V18.832H74.368ZM80.6688 30.144C79.8154 30.144 79.0474 29.9573 78.3647 29.584C77.6821 29.2 77.1434 28.6613 76.7487 27.968C76.3647 27.2747 76.1727 26.4747 76.1727 25.568C76.1727 24.6613 76.3701 23.8613 76.7647 23.168C77.1701 22.4747 77.7194 21.9413 78.4128 21.568C79.1061 21.184 79.8794 20.992 80.7327 20.992C81.5861 20.992 82.3594 21.184 83.0528 21.568C83.7461 21.9413 84.2901 22.4747 84.6848 23.168C85.0901 23.8613 85.2928 24.6613 85.2928 25.568C85.2928 26.4747 85.0848 27.2747 84.6687 27.968C84.2634 28.6613 83.7088 29.2 83.0048 29.584C82.3114 29.9573 81.5328 30.144 80.6688 30.144ZM80.6688 28.192C81.0741 28.192 81.4528 28.096 81.8047 27.904C82.1674 27.7013 82.4554 27.4027 82.6688 27.008C82.8821 26.6133 82.9887 26.1333 82.9887 25.568C82.9887 24.7253 82.7648 24.08 82.3168 23.632C81.8794 23.1733 81.3407 22.944 80.7007 22.944C80.0607 22.944 79.5221 23.1733 79.0847 23.632C78.6581 24.08 78.4448 24.7253 78.4448 25.568C78.4448 26.4107 78.6528 27.0613 79.0687 27.52C79.4954 27.968 80.0288 28.192 80.6688 28.192ZM99.3839 21.136L96.7919 30H94.3759L92.7599 23.808L91.1439 30H88.7119L86.1039 21.136H88.3759L89.9439 27.888L91.6399 21.136H94.0079L95.6719 27.872L97.2399 21.136H99.3839ZM107.336 22.976V27.264C107.336 27.5627 107.406 27.7813 107.544 27.92C107.694 28.048 107.939 28.112 108.28 28.112H109.32V30H107.912C106.024 30 105.08 29.0827 105.08 27.248V22.976H104.024V21.136H105.08V18.944H107.336V21.136H109.32V22.976H107.336ZM115.027 30.144C114.174 30.144 113.406 29.9573 112.723 29.584C112.041 29.2 111.502 28.6613 111.107 27.968C110.723 27.2747 110.531 26.4747 110.531 25.568C110.531 24.6613 110.729 23.8613 111.123 23.168C111.529 22.4747 112.078 21.9413 112.771 21.568C113.465 21.184 114.238 20.992 115.091 20.992C115.945 20.992 116.718 21.184 117.411 21.568C118.105 21.9413 118.649 22.4747 119.043 23.168C119.449 23.8613 119.651 24.6613 119.651 25.568C119.651 26.4747 119.443 27.2747 119.027 27.968C118.622 28.6613 118.067 29.2 117.363 29.584C116.67 29.9573 115.891 30.144 115.027 30.144ZM115.027 28.192C115.433 28.192 115.811 28.096 116.163 27.904C116.526 27.7013 116.814 27.4027 117.027 27.008C117.241 26.6133 117.347 26.1333 117.347 25.568C117.347 24.7253 117.123 24.08 116.675 23.632C116.238 23.1733 115.699 22.944 115.059 22.944C114.419 22.944 113.881 23.1733 113.443 23.632C113.017 24.08 112.803 24.7253 112.803 25.568C112.803 26.4107 113.011 27.0613 113.427 27.52C113.854 27.968 114.387 28.192 115.027 28.192ZM129.363 30.144C128.51 30.144 127.742 29.9573 127.059 29.584C126.376 29.2 125.838 28.6613 125.443 27.968C125.059 27.2747 124.867 26.4747 124.867 25.568C124.867 24.6613 125.064 23.8613 125.459 23.168C125.864 22.4747 126.414 21.9413 127.107 21.568C127.8 21.184 128.574 20.992 129.427 20.992C130.28 20.992 131.054 21.184 131.747 21.568C132.44 21.9413 132.984 22.4747 133.379 23.168C133.784 23.8613 133.987 24.6613 133.987 25.568C133.987 26.4747 133.779 27.2747 133.363 27.968C132.958 28.6613 132.403 29.2 131.699 29.584C131.006 29.9573 130.227 30.144 129.363 30.144ZM129.363 28.192C129.768 28.192 130.147 28.096 130.499 27.904C130.862 27.7013 131.15 27.4027 131.363 27.008C131.576 26.6133 131.683 26.1333 131.683 25.568C131.683 24.7253 131.459 24.08 131.011 23.632C130.574 23.1733 130.035 22.944 129.395 22.944C128.755 22.944 128.216 23.1733 127.779 23.632C127.352 24.08 127.139 24.7253 127.139 25.568C127.139 26.4107 127.347 27.0613 127.763 27.52C128.19 27.968 128.723 28.192 129.363 28.192ZM138.03 22.512C138.318 22.0427 138.692 21.6747 139.15 21.408C139.62 21.1413 140.153 21.008 140.75 21.008V23.36H140.158C139.454 23.36 138.921 23.5253 138.558 23.856C138.206 24.1867 138.03 24.7627 138.03 25.584V30H135.79V21.136H138.03V22.512ZM141.843 25.536C141.843 24.64 142.019 23.8453 142.371 23.152C142.734 22.4587 143.224 21.9253 143.843 21.552C144.462 21.1787 145.15 20.992 145.907 20.992C146.483 20.992 147.032 21.12 147.555 21.376C148.078 21.6213 148.494 21.952 148.803 22.368V18.16H151.075V30H148.803V28.688C148.526 29.1253 148.136 29.4773 147.635 29.744C147.134 30.0107 146.552 30.144 145.891 30.144C145.144 30.144 144.462 29.952 143.843 29.568C143.224 29.184 142.734 28.6453 142.371 27.952C142.019 27.248 141.843 26.4427 141.843 25.536ZM148.819 25.568C148.819 25.024 148.712 24.56 148.499 24.176C148.286 23.7813 147.998 23.4827 147.635 23.28C147.272 23.0667 146.883 22.96 146.467 22.96C146.051 22.96 145.667 23.0613 145.315 23.264C144.963 23.4667 144.675 23.7653 144.451 24.16C144.238 24.544 144.131 25.0027 144.131 25.536C144.131 26.0693 144.238 26.5387 144.451 26.944C144.675 27.3387 144.963 27.6427 145.315 27.856C145.678 28.0693 146.062 28.176 146.467 28.176C146.883 28.176 147.272 28.0747 147.635 27.872C147.998 27.6587 148.286 27.36 148.499 26.976C148.712 26.5813 148.819 26.112 148.819 25.568ZM161.663 25.376C161.663 25.696 161.641 25.984 161.599 26.24H155.119C155.172 26.88 155.396 27.3813 155.791 27.744C156.185 28.1067 156.671 28.288 157.247 28.288C158.079 28.288 158.671 27.9307 159.023 27.216H161.439C161.183 28.0693 160.692 28.7733 159.967 29.328C159.241 29.872 158.351 30.144 157.295 30.144C156.441 30.144 155.673 29.9573 154.991 29.584C154.319 29.2 153.791 28.6613 153.407 27.968C153.033 27.2747 152.847 26.4747 152.847 25.568C152.847 24.6507 153.033 23.8453 153.407 23.152C153.78 22.4587 154.303 21.9253 154.975 21.552C155.647 21.1787 156.42 20.992 157.295 20.992C158.137 20.992 158.889 21.1733 159.551 21.536C160.223 21.8987 160.74 22.416 161.103 23.088C161.476 23.7493 161.663 24.512 161.663 25.376ZM159.343 24.736C159.332 24.16 159.124 23.7013 158.719 23.36C158.313 23.008 157.817 22.832 157.231 22.832C156.676 22.832 156.207 23.0027 155.823 23.344C155.449 23.6747 155.22 24.1387 155.135 24.736H159.343ZM165.698 22.512C165.986 22.0427 166.359 21.6747 166.818 21.408C167.287 21.1413 167.82 21.008 168.418 21.008V23.36H167.826C167.122 23.36 166.588 23.5253 166.226 23.856C165.874 24.1867 165.698 24.7627 165.698 25.584V30H163.458V21.136H165.698V22.512Z" fill="#EC994B"/>
<rect x="0.5" y="0.5" width="198" height="47" rx="23.5" stroke="#EC994B"/>
</svg>
