<svg width="128" height="48" viewBox="0 0 128 48" fill="none" xmlns="http://www.w3.org/2000/svg">
<path d="M36.864 30L34.4 25.648H33.344V30H31.104V18.832H35.296C36.16 18.832 36.896 18.9867 37.504 19.296C38.112 19.5947 38.5653 20.0053 38.864 20.528C39.1733 21.04 39.328 21.616 39.328 22.256C39.328 22.992 39.1147 23.6587 38.688 24.256C38.2613 24.8427 37.6267 25.248 36.784 25.472L39.456 30H36.864ZM33.344 23.968H35.216C35.824 23.968 36.2773 23.824 36.576 23.536C36.8747 23.2373 37.024 22.8267 37.024 22.304C37.024 21.792 36.8747 21.3973 36.576 21.12C36.2773 20.832 35.824 20.688 35.216 20.688H33.344V23.968ZM49.754 25.376C49.754 25.696 49.7327 25.984 49.69 26.24H43.21C43.2633 26.88 43.4873 27.3813 43.882 27.744C44.2767 28.1067 44.762 28.288 45.338 28.288C46.17 28.288 46.762 27.9307 47.114 27.216H49.53C49.274 28.0693 48.7833 28.7733 48.058 29.328C47.3327 29.872 46.442 30.144 45.386 30.144C44.5327 30.144 43.7647 29.9573 43.082 29.584C42.41 29.2 41.882 28.6613 41.498 27.968C41.1247 27.2747 40.938 26.4747 40.938 25.568C40.938 24.6507 41.1247 23.8453 41.498 23.152C41.8713 22.4587 42.394 21.9253 43.066 21.552C43.738 21.1787 44.5113 20.992 45.386 20.992C46.2287 20.992 46.9807 21.1733 47.642 21.536C48.314 21.8987 48.8313 22.416 49.194 23.088C49.5673 23.7493 49.754 24.512 49.754 25.376ZM47.434 24.736C47.4233 24.16 47.2153 23.7013 46.81 23.36C46.4047 23.008 45.9087 22.832 45.322 22.832C44.7673 22.832 44.298 23.0027 43.914 23.344C43.5407 23.6747 43.3113 24.1387 43.226 24.736H47.434ZM55.021 20.992C55.6823 20.992 56.2637 21.1253 56.765 21.392C57.2663 21.648 57.661 21.984 57.949 22.4V21.136H60.205V30.064C60.205 30.8853 60.0397 31.616 59.709 32.256C59.3783 32.9067 58.8823 33.4187 58.221 33.792C57.5597 34.176 56.7597 34.368 55.821 34.368C54.5623 34.368 53.5277 34.0747 52.717 33.488C51.917 32.9013 51.4637 32.1013 51.357 31.088H53.581C53.6983 31.4933 53.949 31.8133 54.333 32.048C54.7277 32.2933 55.2023 32.416 55.757 32.416C56.4077 32.416 56.9357 32.2187 57.341 31.824C57.7463 31.44 57.949 30.8533 57.949 30.064V28.688C57.661 29.104 57.261 29.4507 56.749 29.728C56.2477 30.0053 55.6717 30.144 55.021 30.144C54.2743 30.144 53.5917 29.952 52.973 29.568C52.3543 29.184 51.8637 28.6453 51.501 27.952C51.149 27.248 50.973 26.4427 50.973 25.536C50.973 24.64 51.149 23.8453 51.501 23.152C51.8637 22.4587 52.349 21.9253 52.957 21.552C53.5757 21.1787 54.2637 20.992 55.021 20.992ZM57.949 25.568C57.949 25.024 57.8423 24.56 57.629 24.176C57.4157 23.7813 57.1277 23.4827 56.765 23.28C56.4023 23.0667 56.013 22.96 55.597 22.96C55.181 22.96 54.797 23.0613 54.445 23.264C54.093 23.4667 53.805 23.7653 53.581 24.16C53.3677 24.544 53.261 25.0027 53.261 25.536C53.261 26.0693 53.3677 26.5387 53.581 26.944C53.805 27.3387 54.093 27.6427 54.445 27.856C54.8077 28.0693 55.1917 28.176 55.597 28.176C56.013 28.176 56.4023 28.0747 56.765 27.872C57.1277 27.6587 57.4157 27.36 57.629 26.976C57.8423 26.5813 57.949 26.112 57.949 25.568ZM63.6887 20.08C63.2941 20.08 62.9634 19.9573 62.6967 19.712C62.4407 19.456 62.3127 19.1413 62.3127 18.768C62.3127 18.3947 62.4407 18.0853 62.6967 17.84C62.9634 17.584 63.2941 17.456 63.6887 17.456C64.0834 17.456 64.4087 17.584 64.6647 17.84C64.9314 18.0853 65.0647 18.3947 65.0647 18.768C65.0647 19.1413 64.9314 19.456 64.6647 19.712C64.4087 19.9573 64.0834 20.08 63.6887 20.08ZM64.7927 21.136V30H62.5527V21.136H64.7927ZM70.5579 30.144C69.8325 30.144 69.1819 30.016 68.6059 29.76C68.0299 29.4933 67.5712 29.136 67.2299 28.688C66.8992 28.24 66.7179 27.744 66.6859 27.2H68.9419C68.9845 27.5413 69.1499 27.824 69.4379 28.048C69.7365 28.272 70.1045 28.384 70.5419 28.384C70.9685 28.384 71.2992 28.2987 71.5339 28.128C71.7792 27.9573 71.9019 27.7387 71.9019 27.472C71.9019 27.184 71.7525 26.9707 71.4539 26.832C71.1659 26.6827 70.7019 26.5227 70.0619 26.352C69.4005 26.192 68.8565 26.0267 68.4299 25.856C68.0139 25.6853 67.6512 25.424 67.3419 25.072C67.0432 24.72 66.8939 24.2453 66.8939 23.648C66.8939 23.1573 67.0325 22.7093 67.3099 22.304C67.5979 21.8987 68.0032 21.5787 68.5259 21.344C69.0592 21.1093 69.6832 20.992 70.3979 20.992C71.4539 20.992 72.2965 21.2587 72.9259 21.792C73.5552 22.3147 73.9019 23.024 73.9659 23.92H71.8219C71.7899 23.568 71.6405 23.2907 71.3739 23.088C71.1179 22.8747 70.7712 22.768 70.3339 22.768C69.9285 22.768 69.6139 22.8427 69.3899 22.992C69.1765 23.1413 69.0699 23.3493 69.0699 23.616C69.0699 23.9147 69.2192 24.144 69.5179 24.304C69.8165 24.4533 70.2805 24.608 70.9099 24.768C71.5499 24.928 72.0779 25.0933 72.4939 25.264C72.9099 25.4347 73.2672 25.7013 73.5659 26.064C73.8752 26.416 74.0352 26.8853 74.0459 27.472C74.0459 27.984 73.9019 28.4427 73.6139 28.848C73.3365 29.2533 72.9312 29.5733 72.3979 29.808C71.8752 30.032 71.2619 30.144 70.5579 30.144ZM78.6526 22.976V27.264C78.6526 27.5627 78.722 27.7813 78.8606 27.92C79.01 28.048 79.2553 28.112 79.5966 28.112H80.6366V30H79.2286C77.3406 30 76.3966 29.0827 76.3966 27.248V22.976H75.3406V21.136H76.3966V18.944H78.6526V21.136H80.6366V22.976H78.6526ZM90.6477 25.376C90.6477 25.696 90.6264 25.984 90.5837 26.24H84.1037C84.1571 26.88 84.3811 27.3813 84.7757 27.744C85.1704 28.1067 85.6557 28.288 86.2317 28.288C87.0637 28.288 87.6557 27.9307 88.0077 27.216H90.4237C90.1677 28.0693 89.6771 28.7733 88.9517 29.328C88.2264 29.872 87.3357 30.144 86.2797 30.144C85.4264 30.144 84.6584 29.9573 83.9757 29.584C83.3037 29.2 82.7757 28.6613 82.3917 27.968C82.0184 27.2747 81.8317 26.4747 81.8317 25.568C81.8317 24.6507 82.0184 23.8453 82.3917 23.152C82.7651 22.4587 83.2877 21.9253 83.9597 21.552C84.6317 21.1787 85.4051 20.992 86.2797 20.992C87.1224 20.992 87.8744 21.1733 88.5357 21.536C89.2077 21.8987 89.7251 22.416 90.0877 23.088C90.4611 23.7493 90.6477 24.512 90.6477 25.376ZM88.3277 24.736C88.3171 24.16 88.1091 23.7013 87.7037 23.36C87.2984 23.008 86.8024 22.832 86.2157 22.832C85.6611 22.832 85.1917 23.0027 84.8077 23.344C84.4344 23.6747 84.2051 24.1387 84.1197 24.736H88.3277ZM94.6827 22.512C94.9707 22.0427 95.3441 21.6747 95.8027 21.408C96.2721 21.1413 96.8054 21.008 97.4027 21.008V23.36H96.8107C96.1067 23.36 95.5734 23.5253 95.2107 23.856C94.8587 24.1867 94.6827 24.7627 94.6827 25.584V30H92.4427V21.136H94.6827V22.512Z" fill="#EC994B"/>
<rect x="0.5" y="0.5" width="127" height="47" rx="23.5" stroke="#EC994B"/>
</svg>
