<svg width="178" height="178" viewBox="0 0 178 178" fill="none" xmlns="http://www.w3.org/2000/svg">
<path d="M65.039 104.192C65.039 116.807 75.8286 119.863 89.1414 119.863C111.786 119.863 119.269 106.801 104.201 80.685C83.1158 104.192 80.0991 67.623 83.1158 57.1781C74.0735 72.8493 65.039 87.5725 65.039 104.192Z" stroke="black" stroke-width="12.5" stroke-linecap="round" stroke-linejoin="round"/>
<path d="M88.5458 119.863C113.275 119.863 127.724 103.424 127.724 75.2941C127.724 47.1642 88.5458 18 88.5458 18C88.5458 18 49.3677 47.172 49.3677 75.3019C49.3677 103.432 63.8166 119.863 88.5458 119.863Z" stroke="black" stroke-width="12.5" stroke-linecap="round" stroke-linejoin="round"/>
<path d="M28 159.59L149.092 127.15M28 127.15L88.5458 143.37M149.092 159.59L118.823 151.48" stroke="black" stroke-width="12.5" stroke-linecap="round"/>
</svg>
